<svg width="24" height="24" viewBox="0 0 24 24" fill="none" xmlns="http://www.w3.org/2000/svg">
<path d="M3.88347 4.07397L3.96897 3.96897C4.09325 3.84496 4.25711 3.76848 4.43198 3.75285C4.60686 3.73723 4.78167 3.78345 4.92597 3.88347L5.03097 3.96897L12 10.9395L18.969 3.96897C19.1098 3.82814 19.3008 3.74902 19.5 3.74902C19.6991 3.74902 19.8901 3.82814 20.031 3.96897C20.1718 4.1098 20.2509 4.30081 20.2509 4.49997C20.2509 4.69913 20.1718 4.89014 20.031 5.03097L13.0605 12L20.031 18.969C20.155 19.0933 20.2315 19.2571 20.2471 19.432C20.2627 19.6069 20.2165 19.7817 20.1165 19.926L20.031 20.031C19.9067 20.155 19.7428 20.2315 19.568 20.2471C19.3931 20.2627 19.2183 20.2165 19.074 20.1165L18.969 20.031L12 13.0605L5.03097 20.031C4.89014 20.1718 4.69913 20.2509 4.49997 20.2509C4.30081 20.2509 4.1098 20.1718 3.96897 20.031C3.82814 19.8901 3.74902 19.6991 3.74902 19.5C3.74902 19.3008 3.82814 19.1098 3.96897 18.969L10.9395 12L3.96897 5.03097C3.84496 4.90669 3.76848 4.74284 3.75285 4.56796C3.73723 4.39308 3.78345 4.21827 3.88347 4.07397Z" fill="black"/>
</svg>
