<svg width="31" height="36" viewBox="0 0 31 36" fill="none" xmlns="http://www.w3.org/2000/svg">
<path d="M21.3652 1.42041C22.728 -0.203093 25.1501 -0.413916 26.7734 0.94873C28.399 2.31149 28.6107 4.73256 27.248 6.35791V6.35889C26.0569 7.77547 24.0633 8.11435 22.4941 7.27393L19.5928 10.6821L29.5723 19.0552C30.1117 19.5061 30.2009 20.334 29.7051 20.8843C28.4974 22.2278 27.0568 23.3443 25.4512 24.1812C23.6919 25.0957 21.7669 25.6578 19.79 25.8306C17.8136 26.0033 15.8236 25.785 13.9307 25.189C13.6894 25.1127 13.4497 25.0296 13.2119 24.9419V34.064H23.1221C23.562 34.064 23.916 34.4191 23.916 34.8569C23.916 35.2947 23.562 35.6499 23.1221 35.6499H0.842773C0.404876 35.6499 0.0498109 35.2948 0.0498047 34.8569C0.0498047 34.419 0.404873 34.064 0.842773 34.064H11.625V24.2466C10.6041 23.7268 9.64228 23.0931 8.76074 22.3521C7.24046 21.0764 5.98585 19.5155 5.06934 17.7544C4.1548 15.9952 3.59369 14.0701 3.4209 12.0933C3.24816 10.1168 3.46554 8.12679 4.06152 6.23389C4.60716 4.50768 5.45576 2.89545 6.56836 1.47021C7.02595 0.887644 7.85625 0.833942 8.39551 1.28467L18.376 9.66162L21.2793 6.25146C20.1859 4.85433 20.1786 2.83463 21.3652 1.42041ZM7.62207 2.70752C6.7233 3.91742 6.02984 5.26952 5.57617 6.71045C5.04207 8.40535 4.8477 10.1874 5.00195 11.9556C5.15621 13.7256 5.65715 15.4475 6.47852 17.0229C7.298 18.5982 8.41999 19.9967 9.78125 21.1382C11.1406 22.2796 12.7124 23.1412 14.4072 23.6753C16.1002 24.2094 17.8842 24.4038 19.6523 24.2495C21.4223 24.0952 23.1424 23.5943 24.7178 22.7729C26.0597 22.0753 27.2703 21.1577 28.3057 20.062L17.9639 11.3843L7.62207 2.70752ZM25.7539 2.16357C24.8016 1.36464 23.3791 1.48957 22.5801 2.44189L22.5791 2.44092C21.7804 3.39521 21.9044 4.81588 22.8584 5.6167C23.8107 6.41563 25.2332 6.2907 26.0322 5.33838C26.8328 4.38429 26.7077 2.96456 25.7539 2.16357Z" fill="#DD5428" stroke="#DD5428" stroke-width="0.1"/>
</svg>
